<svg width="201" height="40" viewBox="0 0 201 40" fill="none" xmlns="http://www.w3.org/2000/svg">
<g id="720gruppen-logo-dark-bkg 1" clip-path="url(#clip0_397_34354)">
<g id="Page-1">
<g id="720-gruppen-desktop">
<g id="Group-36">
<g id="Group-22">
<g id="Group-3">
<g id="Mask group">
<mask id="mask0_397_34354" style="mask-type:luminance" maskUnits="userSpaceOnUse" x="69" y="12" width="20" height="28">
<g id="Group">
<path id="Vector" d="M69.4508 12.8086H88.2952V39.8248H69.4508V12.8086Z" fill="white"/>
</g>
</mask>
<g mask="url(#mask0_397_34354)">
<path id="Fill-1" fill-rule="evenodd" clip-rule="evenodd" d="M78.2004 22.5382C78.7899 22.5382 79.303 22.4582 79.7386 22.2982C80.1743 22.1373 80.5369 21.9164 80.8256 21.6347C81.1134 21.3529 81.3317 21.0121 81.4795 20.6155C81.6256 20.2182 81.6995 19.7825 81.6995 19.3077C81.6995 18.3338 81.4082 17.5608 80.8256 16.9903C80.2421 16.4208 79.3673 16.1356 78.2004 16.1356C77.0334 16.1356 76.1586 16.4208 75.5752 16.9903C74.9925 17.5608 74.7004 18.3338 74.7004 19.3077C74.7004 19.7686 74.7743 20.199 74.9212 20.5964C75.0691 20.9938 75.2865 21.3364 75.5752 21.6251C75.863 21.9129 76.2291 22.1373 76.6717 22.2982C77.1134 22.4582 77.6238 22.5382 78.2004 22.5382ZM83.4108 33.7121C83.4108 33.3182 83.2952 32.9982 83.0656 32.7495C82.8343 32.5008 82.5204 32.3077 82.123 32.1703C81.7256 32.0329 81.2612 31.9321 80.7291 31.8669C80.1969 31.8008 79.6325 31.7677 79.0369 31.7677H77.1908C76.556 31.7677 75.9438 31.6973 75.3552 31.5564C74.8152 31.8512 74.383 32.2008 74.056 32.6042C73.7291 33.0086 73.5665 33.4729 73.5665 33.999C73.5665 34.3451 73.6525 34.6677 73.8256 34.9695C73.9986 35.2712 74.2743 35.5295 74.6525 35.7477C75.0299 35.966 75.5204 36.1364 76.123 36.2582C76.7265 36.379 77.4621 36.4408 78.3343 36.4408C79.2195 36.4408 79.9821 36.3721 80.623 36.2347C81.2638 36.0973 81.7934 35.9077 82.2091 35.666C82.6265 35.4225 82.9299 35.1347 83.123 34.8016C83.3152 34.4677 83.4108 34.1042 83.4108 33.7121ZM78.2004 12.8086C79.0465 12.8086 79.8412 12.8947 80.5847 13.0677C81.3282 13.2416 82.0082 13.4947 82.623 13.8269H88.2952V15.5964C88.2952 15.8912 88.2186 16.1216 88.0647 16.2886C87.9108 16.4556 87.6473 16.5712 87.2769 16.6347L85.5065 16.9616C85.6352 17.2956 85.7343 17.6477 85.8056 18.0199C85.8752 18.3912 85.9108 18.7825 85.9108 19.1921C85.9108 20.166 85.716 21.0477 85.3238 21.8355C84.9334 22.6251 84.3952 23.2947 83.7091 23.846C83.023 24.3973 82.2091 24.8234 81.2665 25.1242C80.3247 25.4251 79.303 25.5764 78.2004 25.5764C77.4569 25.5764 76.7325 25.506 76.0273 25.3651C75.4125 25.7399 75.1038 26.159 75.1038 26.6234C75.1038 27.0242 75.2865 27.3182 75.6525 27.5051C76.0178 27.6929 76.4986 27.8242 77.0952 27.9016C77.6908 27.9799 78.3665 28.019 79.1238 28.019C79.8795 28.019 80.6543 28.0503 81.4499 28.1147C82.2438 28.179 83.0204 28.2921 83.7769 28.4529C84.5325 28.6129 85.2099 28.8669 85.8056 29.2147C86.4012 29.5616 86.8821 30.0347 87.2473 30.6329C87.6125 31.2303 87.7952 31.999 87.7952 32.9382C87.7952 33.8121 87.5804 34.6608 87.1517 35.4842C86.7221 36.3077 86.0995 37.0408 85.2856 37.6834C84.4717 38.326 83.4752 38.8442 82.296 39.2364C81.1169 39.6286 79.7708 39.8251 78.2578 39.8251C76.7586 39.8251 75.4569 39.6808 74.3543 39.3921C73.2517 39.1042 72.3386 38.719 71.6143 38.239C70.8899 37.7573 70.3482 37.2025 69.9899 36.5755C69.6308 35.9469 69.4508 35.2929 69.4508 34.6138C69.4508 33.6903 69.7334 32.9155 70.2969 32.2877C70.8612 31.659 71.643 31.159 72.643 30.7869C72.156 30.5182 71.7656 30.1599 71.4708 29.7103C71.1752 29.2616 71.0282 28.679 71.0282 27.9608C71.0282 27.6651 71.0795 27.3616 71.1821 27.0477C71.2838 26.7329 71.4421 26.4225 71.6525 26.1147C71.8647 25.8077 72.1308 25.5155 72.4508 25.239C72.7717 24.9642 73.1491 24.7173 73.5856 24.4999C72.5856 23.9608 71.8004 23.2434 71.2299 22.346C70.6586 21.4486 70.3743 20.3973 70.3743 19.1921C70.3743 18.2182 70.5699 17.3373 70.9604 16.5477C71.3517 15.7599 71.896 15.0869 72.5952 14.5295C73.2934 13.9712 74.1212 13.5451 75.0752 13.2503C76.0308 12.9556 77.0717 12.8086 78.2004 12.8086Z" fill="black"/>
</g>
</g>
</g>
<path id="Fill-4" fill-rule="evenodd" clip-rule="evenodd" d="M89.7373 32.883V13.1551H92.5251C93.0121 13.1551 93.3512 13.2447 93.5443 13.423C93.7364 13.603 93.8643 13.9108 93.9286 14.3465L94.2164 16.7308C94.9217 15.5134 95.7486 14.5517 96.6982 13.8465C97.6469 13.1421 98.7103 12.7891 99.8895 12.7891C100.864 12.7891 101.672 13.0134 102.313 13.4621L101.697 17.0195C101.659 17.2499 101.575 17.4134 101.448 17.5091C101.318 17.6065 101.146 17.6534 100.928 17.6534C100.736 17.6534 100.473 17.6099 100.14 17.5195C99.806 17.4299 99.3634 17.3847 98.813 17.3847C97.826 17.3847 96.979 17.6569 96.2747 18.2021C95.5695 18.7473 94.973 19.5447 94.486 20.596V32.883H89.7373Z" fill="black"/>
<path id="Fill-6" fill-rule="evenodd" clip-rule="evenodd" d="M108.255 13.1543V25.6917C108.255 26.8969 108.533 27.8291 109.09 28.4891C109.649 29.15 110.484 29.4786 111.6 29.4786C112.42 29.4786 113.189 29.296 113.908 28.9317C114.625 28.5665 115.304 28.0639 115.946 27.4213V13.1543H120.696V32.8821H117.792C117.176 32.8821 116.772 32.5943 116.58 32.0169L116.253 30.4404C115.843 30.8517 115.42 31.2256 114.984 31.5656C114.548 31.9047 114.083 32.1943 113.59 32.4308C113.096 32.6682 112.564 32.8534 111.995 32.9891C111.424 33.1239 110.811 33.1908 110.157 33.1908C109.081 33.1908 108.129 33.0082 107.302 32.6421C106.476 32.2769 105.78 31.7604 105.216 31.0952C104.651 30.4282 104.225 29.636 103.937 28.7195C103.649 27.8039 103.504 26.7943 103.504 25.6917V13.1543H108.255Z" fill="black"/>
<path id="Fill-8" fill-rule="evenodd" clip-rule="evenodd" d="M133.464 16.5386C132.476 16.5386 131.633 16.7473 130.935 17.1638C130.236 17.5804 129.585 18.1665 128.984 18.923V27.7682C129.522 28.4351 130.108 28.8995 130.742 29.163C131.377 29.4256 132.06 29.5569 132.791 29.5569C133.509 29.5569 134.159 29.4212 134.743 29.1534C135.325 28.8838 135.819 28.4734 136.223 27.9221C136.627 27.3708 136.937 26.6751 137.155 25.836C137.373 24.9969 137.482 24.0065 137.482 22.8647C137.482 21.7108 137.39 20.7334 137.204 19.9325C137.017 19.1308 136.751 18.4804 136.405 17.9804C136.058 17.4812 135.639 17.1151 135.146 16.8847C134.652 16.6543 134.091 16.5386 133.464 16.5386ZM124.234 39.3247V13.1543H127.137C127.444 13.1543 127.707 13.2247 127.925 13.3665C128.144 13.5073 128.284 13.7247 128.349 14.0204L128.733 15.8465C129.528 14.936 130.441 14.1995 131.473 13.6351C132.504 13.0717 133.713 12.7891 135.097 12.7891C136.174 12.7891 137.158 13.0134 138.05 13.4621C138.941 13.9108 139.71 14.5621 140.357 15.4134C141.004 16.2665 141.504 17.3178 141.857 18.5673C142.21 19.8178 142.386 21.2499 142.386 22.8647C142.386 24.3395 142.186 25.7047 141.79 26.9604C141.391 28.2178 140.825 29.3065 140.088 30.2299C139.351 31.1534 138.459 31.8743 137.415 32.3925C136.371 32.9117 135.2 33.1717 133.905 33.1717C132.791 33.1717 131.845 33.0021 131.069 32.6621C130.293 32.3221 129.598 31.8508 128.984 31.2491V39.3247H124.234Z" fill="black"/>
<path id="Fill-10" fill-rule="evenodd" clip-rule="evenodd" d="M153.672 16.5386C152.685 16.5386 151.843 16.7473 151.144 17.1638C150.445 17.5804 149.794 18.1665 149.192 18.923V27.7682C149.731 28.4351 150.318 28.8995 150.952 29.163C151.586 29.4256 152.269 29.5569 153 29.5569C153.718 29.5569 154.368 29.4212 154.952 29.1534C155.535 28.8838 156.028 28.4734 156.432 27.9221C156.836 27.3708 157.146 26.6751 157.365 25.836C157.582 24.9969 157.692 24.0065 157.692 22.8647C157.692 21.7108 157.599 20.7334 157.412 19.9325C157.226 19.1308 156.96 18.4804 156.615 17.9804C156.268 17.4812 155.848 17.1151 155.355 16.8847C154.861 16.6543 154.301 16.5386 153.672 16.5386ZM144.443 39.3247V13.1543H147.346C147.654 13.1543 147.917 13.2247 148.135 13.3665C148.352 13.5073 148.493 13.7247 148.558 14.0204L148.943 15.8465C149.737 14.936 150.65 14.1995 151.683 13.6351C152.713 13.0717 153.923 12.7891 155.307 12.7891C156.384 12.7891 157.367 13.0134 158.259 13.4621C159.15 13.9108 159.919 14.5621 160.566 15.4134C161.213 16.2665 161.713 17.3178 162.065 18.5673C162.419 19.8178 162.595 21.2499 162.595 22.8647C162.595 24.3395 162.396 25.7047 161.999 26.9604C161.601 28.2178 161.034 29.3065 160.297 30.2299C159.56 31.1534 158.669 31.8743 157.624 32.3925C156.579 32.9117 155.41 33.1717 154.115 33.1717C153 33.1717 152.054 33.0021 151.279 32.6621C150.502 32.3221 149.808 31.8508 149.192 31.2491V39.3247H144.443Z" fill="black"/>
<path id="Fill-12" fill-rule="evenodd" clip-rule="evenodd" d="M172.901 16.2492C171.516 16.2492 170.434 16.6405 169.652 17.4231C168.869 18.2048 168.369 19.3127 168.151 20.7492H177.074C177.074 20.1335 176.99 19.5544 176.824 19.0092C176.657 18.464 176.4 17.9866 176.054 17.5761C175.709 17.1666 175.273 16.8431 174.747 16.6048C174.221 16.3683 173.607 16.2492 172.901 16.2492ZM172.806 12.8457C174.047 12.8457 175.193 13.044 176.238 13.4414C177.281 13.8396 178.182 14.4196 178.939 15.1822C179.694 15.9448 180.285 16.8814 180.708 17.9901C181.131 19.0979 181.342 20.364 181.342 21.7874C181.342 22.1457 181.326 22.4448 181.294 22.6814C181.262 22.9187 181.205 23.1048 181.121 23.2387C181.038 23.3735 180.927 23.4701 180.785 23.5274C180.643 23.5857 180.464 23.6144 180.247 23.6144H168.055C168.196 25.6396 168.741 27.1274 169.69 28.0761C170.638 29.024 171.894 29.4979 173.459 29.4979C174.227 29.4979 174.891 29.4092 175.449 29.2292C176.007 29.0501 176.494 28.8509 176.91 28.6327C177.327 28.4144 177.693 28.217 178.007 28.037C178.32 27.8579 178.625 27.7674 178.92 27.7674C179.113 27.7674 179.279 27.8057 179.42 27.8831C179.56 27.9605 179.682 28.0692 179.785 28.2101L181.17 29.9405C180.643 30.5553 180.054 31.0718 179.401 31.4883C178.747 31.9048 178.064 32.2387 177.353 32.4883C176.641 32.7379 175.917 32.9144 175.18 33.017C174.442 33.1196 173.727 33.1709 173.035 33.1709C171.663 33.1709 170.388 32.9431 169.209 32.4883C168.029 32.0327 167.004 31.3605 166.133 30.4692C165.26 29.5779 164.575 28.477 164.075 27.1622C163.575 25.8483 163.325 24.3257 163.325 22.5953C163.325 21.2492 163.542 19.9831 163.979 18.7979C164.414 17.6118 165.04 16.5796 165.854 15.7014C166.667 14.8231 167.661 14.1283 168.834 13.6153C170.007 13.1022 171.33 12.8457 172.806 12.8457Z" fill="black"/>
<path id="Fill-14" fill-rule="evenodd" clip-rule="evenodd" d="M183.669 32.8822V13.1544H186.573C187.188 13.1544 187.592 13.4422 187.784 14.0196L188.11 15.577C188.508 15.1666 188.928 14.7944 189.371 14.4605C189.813 14.1283 190.28 13.8396 190.774 13.5953C191.267 13.3527 191.796 13.1666 192.36 13.0387C192.925 12.9101 193.54 12.8457 194.206 12.8457C195.283 12.8457 196.238 13.0292 197.072 13.3944C197.905 13.7596 198.6 14.2727 199.158 14.9318C199.715 15.5927 200.138 16.3805 200.426 17.2979C200.716 18.2144 200.859 19.224 200.859 20.3266V32.8822H196.111V20.3266C196.111 19.1214 195.831 18.1892 195.274 17.5283C194.716 16.8683 193.88 16.5379 192.764 16.5379C191.944 16.5379 191.174 16.724 190.457 17.0961C189.738 17.4674 189.059 17.9735 188.419 18.6144V32.8822H183.669Z" fill="black"/>
<g id="Group-18">
<g id="Mask group_2">
<mask id="mask1_397_34354" style="mask-type:luminance" maskUnits="userSpaceOnUse" x="20" y="0" width="24" height="33">
<g id="Group_2">
<path id="Vector_2" d="M20.6547 0H43.5147V32.8833H20.6547V0Z" fill="white"/>
</g>
</mask>
<g mask="url(#mask1_397_34354)">
<path id="Fill-16" fill-rule="evenodd" clip-rule="evenodd" d="M42.9268 7.74174C42.8086 7.00348 42.619 6.29913 42.3425 5.63652C41.8581 4.48348 41.1634 3.48956 40.2555 2.65652C39.3468 1.82261 38.2494 1.1713 36.9625 0.702609C35.6747 0.233913 34.2277 0 32.6199 0C31.1321 0 29.7399 0.197391 28.446 0.591304C27.1503 0.986087 26.0008 1.58522 24.9964 2.3887C24.5312 2.76087 24.1042 3.18174 23.7077 3.64087C23.6842 4.28261 23.6007 4.82261 23.4521 5.24609C23.2721 5.75217 23.1016 6.18348 22.9381 6.54L21.4442 9.70522L24.7616 10.2913C24.9399 10.3217 25.1155 10.3435 25.2868 10.3583C25.4573 10.373 25.6181 10.3809 25.7668 10.3809C26.3912 10.3809 26.8868 10.2313 27.2512 9.93391C27.6155 9.63652 27.9164 9.15304 28.1555 8.48348C28.3042 8.08174 28.5008 7.70957 28.7468 7.36696C28.9929 7.02522 29.2851 6.72696 29.6286 6.47391C29.9712 6.22087 30.3581 6.02087 30.7894 5.8713C31.2207 5.72261 31.6973 5.64783 32.219 5.64783C33.4834 5.64783 34.4251 5.99391 35.0425 6.68609C35.6599 7.37826 35.9686 8.37217 35.9686 9.66609C35.9686 10.4557 35.8721 11.2026 35.6781 11.9096C35.4842 12.6165 35.1947 13.3235 34.8077 14.0304C34.4208 14.7374 33.9294 15.4557 33.3347 16.1852C32.739 16.9148 32.039 17.6809 31.2364 18.4843L21.859 27.9278C21.4138 28.3296 21.1007 28.7757 20.9216 29.267C20.7434 29.7583 20.6547 30.22 20.6547 30.6513V32.8835H43.5147V28.8652C43.5147 28.1948 43.2981 27.6557 42.8677 27.247C42.4355 26.8374 41.8477 26.633 41.1034 26.633H35.0312C34.3312 26.633 33.5834 26.7035 32.7877 26.8452C31.9912 26.9861 31.1834 27.1765 30.366 27.4139L36.7277 20.8957C37.5903 20.0174 38.406 19.1504 39.1721 18.2948C39.9381 17.4391 40.6121 16.553 41.1929 15.6383C41.3251 15.4287 41.4503 15.2157 41.5703 15.0009C41.6651 12.8296 41.9512 10.8991 42.4373 9.22C42.5851 8.70522 42.7494 8.21304 42.9268 7.74174Z" fill="black"/>
</g>
</g>
</g>
<g id="Group-21">
<g id="Mask group_3">
<mask id="mask2_397_34354" style="mask-type:luminance" maskUnits="userSpaceOnUse" x="41" y="0" width="25" height="34">
<g id="Group_3">
<path id="Vector_3" d="M41.5328 0H65.6433V33.2411H41.5328V0Z" fill="white"/>
</g>
</mask>
<g mask="url(#mask2_397_34354)">
<path id="Fill-19" fill-rule="evenodd" clip-rule="evenodd" d="M58.0754 22.1451C57.792 23.5738 57.4163 24.7008 56.9476 25.5277C56.4789 26.3538 55.9467 26.919 55.3511 27.2242C54.7563 27.5286 54.1528 27.6816 53.5433 27.6816C52.9328 27.6816 52.3337 27.5286 51.7467 27.2242C51.1581 26.919 50.6372 26.3538 50.1833 25.5277C49.7294 24.7008 49.3641 23.5738 49.0894 22.1451C48.8146 20.7164 48.6763 18.8703 48.6763 16.6086C48.6763 14.3616 48.8146 12.5199 49.0894 11.0834C49.3641 9.64772 49.7294 8.51989 50.1833 7.70163C50.6372 6.8825 51.1581 6.32163 51.7467 6.01554C52.3337 5.7112 52.9328 5.55815 53.5433 5.55815C54.1528 5.55815 54.7563 5.7112 55.3511 6.01554C55.9467 6.32163 56.4789 6.8825 56.9476 7.70163C57.4163 8.51989 57.792 9.64772 58.0754 11.0834C58.3572 12.5199 58.4989 14.3616 58.4989 16.6086C58.4989 18.8703 58.3572 20.7164 58.0754 22.1451ZM64.7276 9.21989C64.1172 7.13555 63.2737 5.40946 62.1937 4.03989C61.1146 2.67033 59.8346 1.65555 58.3537 0.992937C56.8728 0.330328 55.2694 -0.000976562 53.5433 -0.000976562C51.8172 -0.000976562 50.2207 0.330328 48.7546 0.992937C47.2885 1.65555 46.0198 2.67033 44.9485 4.03989C44.1415 5.0712 43.4676 6.30511 42.9267 7.74163C43.0146 8.28859 43.0676 8.85294 43.0676 9.4425C43.0676 10.6338 42.9007 11.7347 42.5659 12.746C42.3076 13.5269 41.9737 14.2773 41.5711 14.9999C41.5476 15.5234 41.5328 16.0564 41.5328 16.6086C41.5328 19.4512 41.8337 21.9147 42.4372 23.9982C43.0398 26.0816 43.8772 27.8086 44.9485 29.1773C46.0198 30.5469 47.2885 31.566 48.7546 32.2355C50.2207 32.9051 51.8172 33.2408 53.5433 33.2408C55.2694 33.2408 56.8728 32.9051 58.3537 32.2355C59.8346 31.566 61.1146 30.5469 62.1937 29.1773C63.2737 27.8086 64.1172 26.0816 64.7276 23.9982C65.3381 21.9147 65.6433 19.4512 65.6433 16.6086C65.6433 13.766 65.3381 11.3034 64.7276 9.21989Z" fill="black"/>
</g>
</g>
</g>
</g>
<g id="Group-25">
<g id="Mask group_4">
<mask id="mask3_397_34354" style="mask-type:luminance" maskUnits="userSpaceOnUse" x="41" y="7" width="3" height="9">
<g id="Group_4">
<path id="Vector_4" d="M42.4369 9.22034C41.9508 10.8995 41.6647 12.829 41.5708 15.0012C41.9734 14.2777 42.3082 13.5273 42.5665 12.7473C42.9004 11.7351 43.0682 10.6343 43.0682 9.44295C43.0682 8.85338 43.0151 8.28904 42.9273 7.74121C42.7491 8.21338 42.5856 8.70556 42.4369 9.22034Z" fill="url(#paint0_linear_397_34354)"/>
</g>
</mask>
<g mask="url(#mask3_397_34354)">
<path id="Fill-23" fill-rule="evenodd" clip-rule="evenodd" d="M42.4369 9.22034C41.9508 10.8995 41.6647 12.829 41.5708 15.0012C41.9734 14.2777 42.3082 13.5273 42.5665 12.7473C42.9004 11.7351 43.0682 10.6343 43.0682 9.44295C43.0682 8.85338 43.0151 8.28904 42.9273 7.74121C42.7491 8.21338 42.5856 8.70556 42.4369 9.22034Z" fill="url(#paint1_linear_397_34354)"/>
</g>
</g>
</g>
<g id="Group-30">
<path id="Fill-26" fill-rule="evenodd" clip-rule="evenodd" d="M43.0678 9.44306C43.0678 8.85349 43.0139 8.29001 42.927 7.74219C42.7496 8.21349 42.5852 8.70567 42.4365 9.22045C41.9513 10.8996 41.6652 12.83 41.5704 15.0013C41.9739 14.2787 42.3078 13.5274 42.5661 12.7474C42.9009 11.7361 43.0678 10.6344 43.0678 9.44306Z" fill="#EDEDED"/>
<path id="Fill-28" fill-rule="evenodd" clip-rule="evenodd" d="M22.4734 5.40253C22.8369 4.75645 23.2517 4.1721 23.7082 3.64166C23.7134 3.51558 23.7195 3.3921 23.7195 3.25905V0.356445H0.859497V4.91123C0.859497 5.10427 0.903845 5.29471 0.99341 5.48079C1.08211 5.66688 1.19776 5.83036 1.3395 5.97123C1.48037 6.11297 1.64384 6.22514 1.8308 6.30601C2.01689 6.38862 2.21341 6.42949 2.42124 6.42949H16.7317C16.2995 6.89123 15.9021 7.37471 15.5369 7.88079C15.1725 8.38688 14.8343 8.95992 14.5212 9.59906L2.91341 32.8843H7.95863C8.90993 32.8843 9.67689 32.6643 10.2578 32.2251C10.8378 31.786 11.2769 31.2469 11.5751 30.606L21.4438 9.70514L21.1012 9.64427C21.3386 8.02253 21.7969 6.60862 22.4734 5.40253Z" fill="black"/>
</g>
<g id="Group-33">
<g id="Mask group_5">
<mask id="mask4_397_34354" style="mask-type:luminance" maskUnits="userSpaceOnUse" x="21" y="3" width="3" height="7">
<g id="Group_5">
<path id="Vector_5" d="M22.4734 5.40149C21.7968 6.60758 21.3386 8.02149 21.1012 9.64323L21.4447 9.70497L22.9377 6.53976C23.1021 6.18323 23.2725 5.75193 23.4516 5.24497C23.6012 4.82149 23.6847 4.28236 23.7082 3.64062C23.2516 4.17193 22.8368 4.75541 22.4734 5.40149Z" fill="url(#paint2_linear_397_34354)"/>
</g>
</mask>
<g mask="url(#mask4_397_34354)">
<path id="Fill-31" fill-rule="evenodd" clip-rule="evenodd" d="M22.4734 5.40149C21.7968 6.60758 21.3386 8.02149 21.1012 9.64323L21.4447 9.70497L22.9377 6.53976C23.1021 6.18323 23.2725 5.75193 23.4516 5.24497C23.6012 4.82149 23.6847 4.28236 23.7082 3.64062C23.2516 4.17193 22.8368 4.75541 22.4734 5.40149Z" fill="url(#paint3_linear_397_34354)"/>
</g>
</g>
</g>
<path id="Fill-34" fill-rule="evenodd" clip-rule="evenodd" d="M23.4516 5.24584C23.6012 4.82236 23.6847 4.28323 23.7082 3.64062C23.2516 4.17193 22.8368 4.75628 22.4734 5.40236C21.7968 6.60758 21.3386 8.02149 21.1012 9.6441L21.4438 9.70497L22.9377 6.53976C23.1021 6.18323 23.2725 5.75193 23.4516 5.24584Z" fill="#EDEDED"/>
</g>
</g>
</g>
</g>
<defs>
<linearGradient id="paint0_linear_397_34354" x1="-74.1786" y1="347.763" x2="229.221" y2="349.323" gradientUnits="userSpaceOnUse">
<stop stop-color="#2DBAD1"/>
<stop offset="1" stop-color="#1C99AC"/>
</linearGradient>
<linearGradient id="paint1_linear_397_34354" x1="-74.1786" y1="347.763" x2="229.221" y2="349.323" gradientUnits="userSpaceOnUse">
<stop stop-color="#2DBAD1"/>
<stop offset="1" stop-color="#1C99AC"/>
</linearGradient>
<linearGradient id="paint2_linear_397_34354" x1="-308.163" y1="293.934" x2="1009.21" y2="300.707" gradientUnits="userSpaceOnUse">
<stop stop-color="#2DBAD1"/>
<stop offset="1" stop-color="#1C99AC"/>
</linearGradient>
<linearGradient id="paint3_linear_397_34354" x1="-308.163" y1="293.934" x2="1009.21" y2="300.707" gradientUnits="userSpaceOnUse">
<stop stop-color="#2DBAD1"/>
<stop offset="1" stop-color="#1C99AC"/>
</linearGradient>
<clipPath id="clip0_397_34354">
<rect width="200" height="40" fill="white" transform="translate(0.859497)"/>
</clipPath>
</defs>
</svg>
