<svg width="93" height="40" viewBox="0 0 93 40" fill="none" xmlns="http://www.w3.org/2000/svg">
<g clip-path="url(#clip0_401_34457)">
<path fill-rule="evenodd" clip-rule="evenodd" d="M84.4915 13.8871C82.8119 13.4459 80.8186 12.9939 79.1407 12.5414C78.8052 12.451 74.9391 11.4831 74.9391 9.22281C74.9391 6.66298 78.0918 6.26821 80.2252 6.26821C82.8544 6.26821 86.2216 7.27466 87.2082 7.69015C88.1947 8.10565 88.5806 7.76623 89.0757 7.17583L92.1598 3.49636C92.3484 3.27107 92.3453 2.76854 91.8205 2.53772C91.8205 2.53772 86.168 0.0450401 80.4714 0.0450401C77.5419 0.0450401 75.1035 0.245372 72.705 1.25513C70.3317 2.25541 66.984 4.70167 66.984 9.78106C66.984 16.6104 72.1193 18.2576 74.6134 19.0036C76.5278 19.577 81.9885 20.5266 83.5106 21.6356C84.6157 22.4408 84.9506 23.7145 84.7041 24.9282C84.4145 26.3529 82.783 27.5904 78.8788 27.5904C75.7582 27.5904 73.7421 26.8117 70.6989 25.3122C69.9108 24.9238 69.8072 24.9189 69.3349 25.4732L66.1306 29.2328C65.6457 29.8017 65.2961 30.2493 66.0979 30.7153C67.6257 31.6032 74.1426 34.2829 79.7578 34.2829C86.0634 34.2829 92.7247 31.827 92.7247 23.7073C92.7247 19.7903 91.2545 15.6634 84.4915 13.8871ZM19.1686 25.4098C17.9394 27.0832 16.2086 27.9203 13.9772 27.9203C12.4964 27.9203 11.3236 27.4902 10.4587 26.6295C9.59482 25.7684 9.16155 24.6118 9.16155 23.1573C9.16155 21.2052 9.78652 19.8283 11.0368 19.0247C12.2856 18.2222 16.2605 17.9233 16.2605 17.9233C17.0192 17.8657 18.2635 17.8192 19.0238 17.8192H19.631C20.3918 17.8192 21.0136 17.9975 21.0136 18.6516C21.0136 21.2026 20.3978 23.7361 19.1686 25.4099M15.1601 0C8.53278 0 4.09729 1.90108 3.12467 2.31298C2.50525 2.5753 2.54117 3.07405 2.72971 3.29916L5.81382 6.97882C6.49535 7.79156 6.88845 7.77167 7.52452 7.55089C7.54211 7.54481 10.6479 6.22686 15.1601 6.22686C17.0821 6.22686 18.5317 6.58626 19.529 7.27438C20.8781 8.20549 20.9026 9.80787 20.999 10.7722C21.0635 11.4173 20.3918 11.7649 19.631 11.7649H15.1601C10.0461 11.7649 6.26746 12.6597 3.82674 14.4475C1.38546 16.2365 0.164307 19.0057 0.164307 22.7548C0.164307 26.2189 1.18775 28.9156 3.23555 30.8477C5.28336 32.7799 8.21438 33.7467 11.8152 33.7467C15.4378 33.7467 18.4559 32.489 21.0109 29.2937C21.6606 28.4812 22.095 29.1593 22.095 29.1593L24.966 32.5175C24.966 32.5175 24.9861 32.5425 25.0248 32.5799C25.1396 32.6913 25.4214 32.9153 25.832 32.9153H28.6209C29.1078 32.9153 29.3997 32.6559 29.4051 32.2854V14.5771C29.4051 9.10574 28.3439 5.30865 26.2177 3.18375C24.0944 1.06199 20.4079 0 15.1601 0ZM67.4274 1.36585C67.86 0.857603 67.6679 0.446072 67.0007 0.446072H52.9474C52.4463 0.446072 51.852 0.808787 51.6247 1.25302L50.5142 3.45666L54.9504 16.0052L67.4275 1.36575L67.4274 1.36585ZM64.1094 39.1363L44.8133 1.52197C44.5104 0.929631 43.7184 0.44598 43.0488 0.44598H29.1937C28.527 0.44598 28.3332 0.857511 28.7669 1.36575L42.1416 17.3217L34.7609 31.8633C34.4595 32.4566 34.7609 32.9432 35.4282 32.9432L39.3536 32.9428C39.8999 32.9428 40.2185 32.5461 40.2185 32.5461L47.6259 23.8645L60.419 39.1376C60.4239 39.1435 61.1206 40 61.9062 40H63.5948C63.82 40 64.5561 40.0068 64.1097 39.1366L64.1094 39.1363Z" fill="black"/>
</g>
<defs>
<clipPath id="clip0_401_34457">
<rect width="92.5604" height="40" fill="white" transform="translate(0.164307)"/>
</clipPath>
</defs>
</svg>
