<svg width="236" height="33" viewBox="0 0 236 33" fill="none" xmlns="http://www.w3.org/2000/svg">
<path id="Vector" d="M222.38 20.1879C223.471 21.2682 224.833 21.8076 226.465 21.8076C228.098 21.8076 229.458 21.2682 230.549 20.1879C231.64 19.1075 232.187 17.7651 232.187 16.1577C232.187 14.5502 231.642 13.2063 230.549 12.1275C229.458 11.0471 228.096 10.5077 226.465 10.5077C224.835 10.5077 223.473 11.0471 222.38 12.1275C221.288 13.2063 220.742 14.5502 220.742 16.1577C220.742 17.7651 221.288 19.1075 222.38 20.1879ZM232.186 7.34025H236V24.5062C236 27.2415 235.101 29.3409 233.302 30.8043C231.502 32.2677 229.319 33.0002 226.752 33.0002C222.602 33.0002 219.758 31.5491 218.223 28.6452L221.57 26.7021C222.504 28.5502 224.256 29.4727 226.824 29.4727C228.504 29.4727 229.817 29.0344 230.764 28.1594C231.712 27.2844 232.186 26.0661 232.186 24.5077V22.3118C230.723 24.3989 228.635 25.4425 225.925 25.4425C223.381 25.4425 221.234 24.5368 219.482 22.7255C217.731 20.9142 216.856 18.7244 216.856 16.1577C216.856 13.5909 217.731 11.4011 219.482 9.58981C221.234 7.77851 223.381 6.87287 225.925 6.87287C228.635 6.87287 230.723 7.91643 232.186 10.0036V7.34025ZM200.841 20.4039C201.921 21.4843 203.253 22.0237 204.836 22.0237C206.419 22.0237 207.75 21.4843 208.831 20.4039C209.909 19.3236 210.45 17.969 210.45 16.337C210.45 14.7049 209.911 13.3503 208.831 12.27C207.75 11.1896 206.419 10.6502 204.836 10.6502C203.253 10.6502 201.921 11.1896 200.841 12.27C199.76 13.3503 199.221 14.7049 199.221 16.337C199.221 17.969 199.76 19.3236 200.841 20.4039ZM204.836 25.8026C202.197 25.8026 199.954 24.8908 198.105 23.0672C196.259 21.2437 195.335 19.0003 195.335 16.337C195.335 13.6736 196.259 11.4317 198.105 9.60819C199.954 7.78464 202.195 6.87287 204.836 6.87287C207.476 6.87287 209.749 7.78464 211.583 9.60819C213.419 11.4317 214.337 13.6752 214.337 16.337C214.337 18.9987 213.419 21.2437 211.583 23.0672C209.747 24.8908 207.499 25.8026 204.836 25.8026ZM188.749 10.3637C189.732 8.1325 191.58 7.01691 194.291 7.01691V11.2279C192.803 11.1314 191.508 11.4854 190.405 12.2899C189.302 13.0929 188.75 14.4184 188.75 16.2665V25.3352H184.864V7.34178H188.75V10.3652L188.749 10.3637ZM181.228 4.10229H170.611V11.1559H180.868V15.1141H170.611V25.3352H166.472V0.142578H181.228V4.10076V4.10229ZM163.594 25.3352H158.951L151.574 17.0281V25.3352H147.688V0.142578H151.574V15.3302L158.556 7.34025H163.306L155.388 16.1577L163.594 25.3337V25.3352ZM136.783 25.8026C134.073 25.8026 131.811 24.8908 130 23.0672C128.188 21.2437 127.283 19.0003 127.283 16.337C127.283 13.6736 128.188 11.4011 130 9.58981C131.811 7.77851 134.073 6.87287 136.783 6.87287C138.535 6.87287 140.13 7.29274 141.569 8.1325C143.008 8.97225 144.088 10.1001 144.809 11.5145L141.462 13.4576C141.054 12.5933 140.437 11.916 139.609 11.4241C138.782 10.9322 137.829 10.6855 136.748 10.6855C135.165 10.6855 133.84 11.2249 132.772 12.3052C131.704 13.3856 131.17 14.7279 131.17 16.3354C131.17 17.9429 131.704 19.2868 132.772 20.3656C133.84 21.446 135.165 21.9854 136.748 21.9854C137.804 21.9854 138.757 21.7341 139.609 21.2299C140.461 20.7257 141.102 20.0545 141.534 19.2148L144.881 21.1226C144.113 22.5615 143.01 23.7017 141.569 24.5414C140.13 25.3812 138.535 25.801 136.783 25.801V25.8026ZM110.117 20.4591C111.197 21.5502 112.552 22.0957 114.184 22.0957C115.816 22.0957 117.17 21.5502 118.251 20.4591C119.331 19.368 119.87 17.9935 119.87 16.3385C119.87 14.6835 119.331 13.3089 118.251 12.2179C117.17 11.1268 115.816 10.5797 114.184 10.5797C112.552 10.5797 111.197 11.1253 110.117 12.2179C109.038 13.3089 108.497 14.6835 108.497 16.3385C108.497 17.9935 109.036 19.368 110.117 20.4591ZM119.869 7.34178H123.755V25.3352H119.869V22.7439C118.405 24.7835 116.306 25.8026 113.571 25.8026C111.099 25.8026 108.989 24.8847 107.237 23.0504C105.486 21.2146 104.611 18.9773 104.611 16.3385C104.611 13.6997 105.486 11.4333 107.237 9.60973C108.989 7.78617 111.101 6.8744 113.571 6.8744C116.306 6.8744 118.405 7.88272 119.869 9.89782V7.34178ZM88.4517 20.4591C89.532 21.5502 90.8867 22.0957 92.5187 22.0957C94.1507 22.0957 95.5053 21.5502 96.5857 20.4591C97.666 19.368 98.2054 17.9935 98.2054 16.3385C98.2054 14.6835 97.666 13.3089 96.5857 12.2179C95.5053 11.1268 94.1507 10.5797 92.5187 10.5797C90.8867 10.5797 89.532 11.1253 88.4517 12.2179C87.3714 13.3089 86.832 14.6835 86.832 16.3385C86.832 17.9935 87.3714 19.368 88.4517 20.4591ZM93.1301 6.8744C95.6019 6.8744 97.712 7.78617 99.4635 9.60973C101.215 11.4333 102.09 13.6767 102.09 16.3385C102.09 19.0003 101.215 21.2146 99.4635 23.0504C97.712 24.8862 95.6003 25.8026 93.1301 25.8026C90.3948 25.8026 88.2954 24.7835 86.832 22.7439V25.3352H82.9458V0.142578H86.832V9.89629C88.2954 7.88118 90.3948 6.87287 93.1301 6.87287V6.8744ZM64.7716 20.4591C65.8504 21.5502 67.2066 22.0957 68.8386 22.0957C70.4706 22.0957 71.8252 21.5502 72.9055 20.4591C73.9843 19.368 74.5253 17.9935 74.5253 16.3385C74.5253 14.6835 73.9859 13.3089 72.9055 12.2179C71.8252 11.1268 70.4706 10.5797 68.8386 10.5797C67.2066 10.5797 65.8519 11.1253 64.7716 12.2179C63.6912 13.3089 63.1518 14.6835 63.1518 16.3385C63.1518 17.9935 63.6912 19.368 64.7716 20.4591ZM74.5237 0.14411H78.4099V25.3352H74.5237V22.7439C73.0603 24.7835 70.9609 25.8026 68.2256 25.8026C65.7538 25.8026 63.6437 24.8847 61.8922 23.0504C60.1407 21.2146 59.2641 18.9773 59.2641 16.3385C59.2641 13.6997 60.1391 11.4333 61.8922 9.60973C63.6437 7.78617 65.7554 6.8744 68.2256 6.8744C70.9609 6.8744 73.0603 7.88272 74.5237 9.89782V0.14411ZM42.4599 14.8275H53.0395C52.776 13.3641 52.1707 12.2608 51.2221 11.516C50.2751 10.7728 49.1656 10.4004 47.8937 10.4004C46.4548 10.4004 45.255 10.7973 44.2957 11.5881C43.3364 12.3803 42.725 13.4591 42.4614 14.8275H42.4599ZM42.4951 17.9935C42.7832 19.3619 43.4437 20.4116 44.475 21.1425C45.5063 21.8735 46.7659 22.2397 48.2539 22.2397C50.3165 22.2397 51.8642 21.4965 52.8955 20.0086L56.0982 21.8796C54.3222 24.4954 51.6956 25.8026 48.2171 25.8026C45.2902 25.8026 42.9272 24.9092 41.1282 23.1209C39.3292 21.3341 38.4297 19.0723 38.4297 16.337C38.4297 13.6016 39.3169 11.4011 41.0914 9.58981C42.8675 7.77851 45.1462 6.87287 47.929 6.87287C50.5678 6.87287 52.7331 7.7969 54.4248 9.64344C56.1166 11.4915 56.9625 13.7334 56.9625 16.3737C56.9625 16.7813 56.915 17.3208 56.8184 17.9935H42.4951ZM21.6223 14.8275H32.2035C31.94 13.3641 31.3331 12.2608 30.3861 11.516C29.4391 10.7728 28.3296 10.4004 27.0577 10.4004C25.6188 10.4004 24.419 10.7973 23.4597 11.5881C22.5004 12.3803 21.8874 13.4591 21.6239 14.8275H21.6223ZM21.6576 17.9935C21.9457 19.3619 22.6061 20.4116 23.6374 21.1425C24.6687 21.8735 25.9284 22.2397 27.4163 22.2397C29.4789 22.2397 31.0267 21.4965 32.0595 20.0086L35.2622 21.8796C33.4861 24.4954 30.8596 25.8026 27.3811 25.8026C24.4542 25.8026 22.0912 24.9092 20.2907 23.1209C18.4916 21.3341 17.5921 19.0723 17.5921 16.337C17.5921 13.6016 18.4794 11.4011 20.2554 9.58981C22.0315 7.77851 24.3102 6.87287 27.093 6.87287C29.7318 6.87287 31.8971 7.7969 33.5888 9.64344C35.2806 11.4915 36.1265 13.7334 36.1265 16.3737C36.1265 16.7813 36.0774 17.3208 35.9824 17.9935H21.6591H21.6576ZM14.9641 4.10229H4.34762V11.1559H14.604V15.1141H4.34762V25.3352H0.208618V0.142578H14.9625V4.10076L14.9641 4.10229Z" fill="black"/>
</svg>
