<svg width="140" height="40" viewBox="0 0 140 40" fill="none" xmlns="http://www.w3.org/2000/svg">
<g clip-path="url(#clip0_401_34449)">
<path d="M0.531616 39.6238H6.27178V37.2971C6.27178 33.8001 6.9684 30.7349 8.34771 28.1853C9.61556 25.7889 11.58 23.8384 13.9625 22.5566C16.5121 21.1773 19.5772 20.4807 23.0743 20.4807V14.7405C18.6159 14.7405 14.6312 15.674 11.2457 17.4991C9.37871 18.5023 7.70682 19.784 6.27178 21.3166V5.74016H26.7385V0H0.531616V39.6238Z" fill="black"/>
<path d="M61.3466 11.4805C53.4748 11.4805 47.0798 17.8615 47.0798 25.7473C47.0798 33.633 53.4609 40.0141 61.3466 40.0141C69.2324 40.0141 75.6134 33.633 75.6134 25.7473C75.5995 17.8615 69.2185 11.4805 61.3466 11.4805ZM61.3466 34.26C56.6375 34.26 52.82 30.4425 52.82 25.7333C52.82 21.0242 56.6375 17.2067 61.3466 17.2067C66.0558 17.2067 69.8733 21.0242 69.8733 25.7333C69.8594 30.4425 66.0558 34.26 61.3466 34.26Z" fill="black"/>
<path d="M34.7636 15.298V11.8566H29.0374V39.624H34.7636V28.8124C34.7636 26.3603 35.2373 24.2286 36.1986 22.4732C37.0624 20.8431 38.3999 19.5195 40.0161 18.6557C41.7716 17.7083 43.9033 17.2206 46.3554 17.2206V11.4805C42.9558 11.4805 39.9046 12.191 37.2993 13.5982C36.4076 14.0858 35.5577 14.6571 34.7636 15.298Z" fill="black"/>
<path d="M107.184 33.4518V0H101.458V14.3086C95.1468 9.59944 86.2161 10.8812 81.493 17.1926C76.7699 23.504 78.0656 32.4347 84.3631 37.1578C89.4763 40.9892 96.5261 40.9474 101.584 37.0463C101.667 38.0495 101.765 38.9133 101.876 39.6099H107.686C107.352 37.5897 107.17 35.5277 107.184 33.4518ZM92.9315 34.2598C88.2224 34.2598 84.4049 30.4424 84.4049 25.7332C84.4049 21.024 88.2224 17.2065 92.9315 17.2065C97.6407 17.2065 101.458 21.024 101.458 25.7332C101.458 30.4424 97.6407 34.2598 92.9315 34.2598Z" fill="black"/>
<path d="M139.34 33.4515V11.8562H133.6V14.3083C127.289 9.58522 118.358 10.8809 113.635 17.1784C108.912 23.4759 110.208 32.4205 116.505 37.1436C121.618 40.975 128.668 40.9332 133.726 37.0321C133.809 38.0352 133.921 38.899 134.018 39.5957H139.828C139.508 37.5894 139.326 35.5274 139.34 33.4515ZM125.088 34.2595C120.378 34.2595 116.561 30.4421 116.561 25.7329C116.561 21.0237 120.378 17.2063 125.088 17.2063C129.797 17.2063 133.614 21.0237 133.614 25.7329C133.614 30.4421 129.797 34.2595 125.088 34.2595Z" fill="black"/>
</g>
<defs>
<clipPath id="clip0_401_34449">
<rect width="139.324" height="40" fill="white" transform="translate(0.531616)"/>
</clipPath>
</defs>
</svg>
