<svg width="207" height="40" viewBox="0 0 207 40" fill="none" xmlns="http://www.w3.org/2000/svg">
<g clip-path="url(#clip0_401_34417)">
<path d="M72.9991 36.5095V17.5277L66.7445 29.8914H62.4536L56.1991 17.5277V36.5095H49.7991V3.92773H56.0536L64.5627 21.5277L73.0718 3.92773H79.3263V36.5095H72.9991Z" fill="black"/>
<path d="M98.1627 36.5098V34.328C96.6355 36.0007 94.3809 36.8007 92.1991 36.8007C89.7991 36.8007 87.9082 36.0007 86.5991 34.6916C84.7082 32.8007 84.1991 30.5462 84.1991 27.928V12.6553H90.1627V27.0553C90.1627 30.328 92.1991 31.4189 94.09 31.4189C95.9809 31.4189 98.09 30.328 98.09 27.0553V12.6553H104.054V36.5098H98.1627Z" fill="black"/>
<path d="M122.381 36.5097V22.1097C122.381 18.837 120.345 17.7461 118.454 17.7461C116.563 17.7461 114.454 18.837 114.454 22.1097V36.5097H108.49V12.6552H114.308V14.837C115.835 13.1643 118.09 12.3643 120.272 12.3643C122.672 12.3643 124.563 13.1643 125.872 14.4733C127.763 16.3643 128.272 18.6188 128.272 21.237V36.5097H122.381Z" fill="black"/>
<path d="M140.272 36.5099C135.399 36.5099 133.363 33.0918 133.363 29.6736V17.8918H130.817V13.3827H133.363V6.32812H139.326V13.3827H143.545V17.8918H139.326V29.3099C139.326 30.6918 139.981 31.4918 141.363 31.4918H143.545V36.5099H140.272Z" fill="black"/>
<path d="M151.399 26.4729C151.399 29.5274 153.29 31.782 156.635 31.782C159.254 31.782 160.563 31.0547 162.017 29.5274L165.654 33.0183C163.254 35.4183 160.926 36.8002 156.563 36.8002C150.963 36.8002 145.508 34.2547 145.508 24.582C145.508 16.8002 149.726 12.4365 155.908 12.4365C162.526 12.4365 166.308 17.3093 166.308 23.8547V26.5456H151.399V26.4729ZM159.908 19.8547C159.254 18.4002 157.945 17.382 155.908 17.382C153.872 17.382 152.563 18.4002 151.908 19.8547C151.545 20.7274 151.399 21.382 151.326 22.4002H160.417C160.417 21.3093 160.345 20.7274 159.908 19.8547Z" fill="black"/>
<path d="M182.745 19.2006C181.799 18.2552 181.072 17.7461 179.617 17.7461C177.799 17.7461 175.763 19.1279 175.763 22.1097V36.5097H169.799V12.6552H175.617V14.9097C176.781 13.5279 179.035 12.3643 181.581 12.3643C183.908 12.3643 185.581 12.9461 187.181 14.6188L182.745 19.2006Z" fill="black"/>
<path d="M196.417 36.8006C192.635 36.8006 189.29 36.3643 186.235 33.3824L190.163 29.4552C192.126 31.4188 194.672 31.7097 196.563 31.7097C198.599 31.7097 200.781 31.0552 200.781 29.237C200.781 28.0733 200.126 27.2006 198.235 27.0552L194.454 26.6915C190.163 26.2552 187.472 24.437 187.472 20.0006C187.472 15.0552 191.835 12.3643 196.708 12.3643C200.417 12.3643 203.545 13.0188 205.799 15.1279L202.163 18.837C200.781 17.6006 198.672 17.237 196.635 17.237C194.235 17.237 193.217 18.3279 193.217 19.4915C193.217 20.3643 193.581 21.3824 195.69 21.5279L199.472 21.8915C204.199 22.3279 206.599 24.8733 206.599 28.8734C206.526 34.3279 202.017 36.8006 196.417 36.8006Z" fill="black"/>
<path d="M31.9081 4.7998L19.9081 20.4362L7.90812 4.87253C3.3263 8.43617 0.344482 14.0362 0.344482 20.2907C0.344482 26.2544 3.03539 31.6362 7.25357 35.2725L11.1081 30.9089C8.05357 28.3634 6.16266 24.5816 6.16266 20.2907C6.16266 17.9634 6.74448 15.7089 7.76266 13.818L19.9081 29.818L32.0536 13.818C33.0718 15.7816 33.7263 17.9634 33.7263 20.3634C33.7263 24.5816 31.8354 28.3634 28.8536 30.9089L32.6354 35.3453C36.8536 31.7816 39.5445 26.3998 39.5445 20.3634C39.5445 14.0362 36.5627 8.43617 31.9081 4.7998Z" fill="black"/>
<path d="M19.9082 6.54521C22.5263 6.54521 24.9263 7.27248 27.0354 8.50884L30.3809 3.70884C27.3263 1.81793 23.7627 0.654297 19.9082 0.654297C16.0536 0.654297 12.49 1.74521 9.43542 3.70884L12.7082 8.50884C14.8172 7.27248 17.29 6.54521 19.9082 6.54521Z" fill="black"/>
<path d="M19.9082 34.0358C17.0718 34.0358 14.5263 33.1631 12.3445 31.7812L8.78088 36.4358C11.9082 38.6176 15.7627 39.9267 19.9082 39.9267C24.0536 39.9267 27.9082 38.6176 31.0354 36.4358L27.4718 31.7812C25.3627 33.2358 22.7445 34.0358 19.9082 34.0358Z" fill="black"/>
</g>
<defs>
<clipPath id="clip0_401_34417">
<rect width="206.545" height="40" fill="white" transform="translate(0.344482)"/>
</clipPath>
</defs>
</svg>
