<svg width="361" height="40" viewBox="0 0 361 40" fill="none" xmlns="http://www.w3.org/2000/svg">
<path d="M105.721 0.737305H74.1306V9.05972H85.3819V39.5679H95.5513V9.05972H105.721V0.737305Z" fill="#4E4B48"/>
<path d="M109.264 0.737305V9.05972H119.437V39.5679H129.606V9.05972H140.854V0.737305H109.264Z" fill="#4E4B48"/>
<path d="M218.258 39.5679V0.737305H208.55V23.9736L191.243 0.737305H181.538V39.5679H191.243V16.6139L208.55 39.5679H218.258Z" fill="#4E4B48"/>
<path d="M145.787 39.5679H155.956H174.498V31.2487H155.956V23.6067H171.673V15.2843H155.956V9.05972H174.498V0.737305H145.787V39.5679Z" fill="#4E4B48"/>
<path d="M225.995 39.5679H236.167V23.8513H252.583V15.532H236.167V9.05972H255.634V0.737305H225.995V39.5679Z" fill="#4E4B48"/>
<path d="M33.4906 0.737305L22.4338 28.0376H22.346L11.286 0.737305H1.45215L17.382 39.5679H27.3946L43.3245 0.737305H33.4906Z" fill="#4E4B48"/>
<path d="M330.348 39.5679H358.429V30.9508H340.517V0.737305H330.348V39.5679Z" fill="#4E4B48"/>
<path d="M297.88 39.5679H325.961V30.9508H308.049V0.737305H297.88V39.5679Z" fill="#4E4B48"/>
<path d="M284.739 39.5702H294.572L278.386 0.738281H268.425L252.238 39.5702H262.072L264.86 32.6357H281.95L284.739 39.5702ZM268.057 24.7322L273.37 11.4696H273.438L278.77 24.7306L268.057 24.7322Z" fill="#4E4B48"/>
<path d="M69.2701 39.5702H79.1031L62.916 0.738281H52.9545L36.7672 39.5702H46.6008L49.3894 32.6357H66.4796L69.2701 39.5702ZM52.5876 24.7322L57.901 11.4696H57.9681L63.3008 24.7306L52.5876 24.7322Z" fill="#4E4B48"/>
</svg>
