<svg width="101" height="85" viewBox="0 0 101 85" fill="none" xmlns="http://www.w3.org/2000/svg">
<g clip-path="url(#clip0_446_756)">
<path d="M1.56714 82.8859C4.43136 82.8859 8.7277 76.871 13.7401 76.0117C16.6043 76.0117 18.7525 82.0266 25.9131 82.8859C30.9255 82.8859 33.0736 76.871 38.086 76.871C43.0984 76.871 45.2466 82.8859 50.259 82.8859C55.2714 82.8859 57.4195 76.871 62.4319 76.871C67.4443 76.871 69.5925 82.8859 74.6049 82.8859C79.6173 82.8859 81.7655 76.871 86.7778 76.871C91.7902 76.871 93.9384 82.8859 98.9508 82.8859" stroke="black" stroke-width="2.5778" stroke-linecap="round" stroke-linejoin="round"/>
<path d="M11.3628 76.8983L8.08325 70.6256L92.5779 65.1836C85.9329 71.2271 77.3975 76.1249 68.7619 80.1348" stroke="black" stroke-width="2.5778" stroke-linecap="round" stroke-linejoin="round"/>
<path d="M41.7236 12.1953C56.102 16.5919 76.2089 37.8301 83.0544 60.658C79.3023 59.1829 76.4953 57.6792 71.2252 59.0254C66.1268 40.4795 57.0043 22.7643 41.7236 12.1953Z" stroke="black" stroke-width="2.5778" stroke-linecap="round" stroke-linejoin="round"/>
<path d="M14.986 2.04297C33.403 9.91959 58.6655 31.8452 63.3055 61.046C42.0673 52.482 25.8987 57.0504 14.6423 63.9962C31.8134 42.1708 24.1086 17.3523 14.986 2.04297Z" stroke="black" stroke-width="2.5778" stroke-linecap="round" stroke-linejoin="round"/>
</g>
<defs>
<clipPath id="clip0_446_756">
<rect width="100.879" height="85" fill="white"/>
</clipPath>
</defs>
</svg>
